<mxfile host="app.diagrams.net" modified="2023-09-04T09:05:29.914Z" agent="Mozilla/5.0 (Windows NT 10.0; Win64; x64) AppleWebKit/537.36 (KHTML, like Gecko) Chrome/115.0.0.0 Safari/537.36" etag="uUyjWlvw_nj1trGxfbq8" version="21.6.9" type="github">
  <diagram name="第 1 页" id="A0BUwzCSkSx9OzqUEJ9N">
    <mxGraphModel dx="1434" dy="758" grid="0" gridSize="10" guides="1" tooltips="1" connect="0" arrows="0" fold="1" page="1" pageScale="1" pageWidth="3300" pageHeight="4681" math="0" shadow="0">
      <root>
        <mxCell id="0" />
        <mxCell id="1" parent="0" />
        <mxCell id="UlxvyviYZGNXZBbqDF18-1" value="" style="rounded=0;whiteSpace=wrap;html=1;" vertex="1" parent="1">
          <mxGeometry x="214" y="116" width="394" height="142" as="geometry" />
        </mxCell>
        <mxCell id="UlxvyviYZGNXZBbqDF18-2" value="" style="rounded=0;whiteSpace=wrap;html=1;" vertex="1" parent="1">
          <mxGeometry x="624" y="113" width="429" height="145" as="geometry" />
        </mxCell>
        <mxCell id="UlxvyviYZGNXZBbqDF18-3" value="线程A" style="text;html=1;strokeColor=none;fillColor=none;align=center;verticalAlign=middle;whiteSpace=wrap;rounded=0;fontSize=20;" vertex="1" parent="1">
          <mxGeometry x="366" y="280" width="60" height="30" as="geometry" />
        </mxCell>
        <mxCell id="UlxvyviYZGNXZBbqDF18-4" value="线程B" style="text;html=1;strokeColor=none;fillColor=none;align=center;verticalAlign=middle;whiteSpace=wrap;rounded=0;fontSize=20;" vertex="1" parent="1">
          <mxGeometry x="554" y="283" width="528" height="30" as="geometry" />
        </mxCell>
        <mxCell id="UlxvyviYZGNXZBbqDF18-6" value="" style="rounded=0;whiteSpace=wrap;html=1;" vertex="1" parent="1">
          <mxGeometry x="345" y="338" width="120" height="60" as="geometry" />
        </mxCell>
        <mxCell id="UlxvyviYZGNXZBbqDF18-7" value="" style="rounded=0;whiteSpace=wrap;html=1;" vertex="1" parent="1">
          <mxGeometry x="759" y="338" width="120" height="60" as="geometry" />
        </mxCell>
        <mxCell id="UlxvyviYZGNXZBbqDF18-8" value="ThreadLocal(假设地址123)" style="text;html=1;strokeColor=none;fillColor=none;align=center;verticalAlign=middle;whiteSpace=wrap;rounded=0;fontSize=20;" vertex="1" parent="1">
          <mxGeometry x="264.75" y="401" width="280.5" height="66" as="geometry" />
        </mxCell>
        <mxCell id="UlxvyviYZGNXZBbqDF18-9" value="&lt;span style=&quot;color: rgb(0, 0, 0); font-family: Helvetica; font-size: 20px; font-style: normal; font-variant-ligatures: normal; font-variant-caps: normal; font-weight: 400; letter-spacing: normal; orphans: 2; text-align: center; text-indent: 0px; text-transform: none; widows: 2; word-spacing: 0px; -webkit-text-stroke-width: 0px; background-color: rgb(251, 251, 251); text-decoration-thickness: initial; text-decoration-style: initial; text-decoration-color: initial; float: none; display: inline !important;&quot;&gt;ThreadLocal2(假设地址456)&lt;/span&gt;" style="text;whiteSpace=wrap;html=1;" vertex="1" parent="1">
          <mxGeometry x="685" y="410" width="285" height="52" as="geometry" />
        </mxCell>
        <mxCell id="UlxvyviYZGNXZBbqDF18-11" value="ThreadLocalMap" style="text;html=1;strokeColor=none;fillColor=none;align=center;verticalAlign=middle;whiteSpace=wrap;rounded=0;fontSize=20;" vertex="1" parent="1">
          <mxGeometry x="311" y="219" width="160" height="39" as="geometry" />
        </mxCell>
        <mxCell id="UlxvyviYZGNXZBbqDF18-13" value="ThreadLocalMap" style="text;html=1;strokeColor=none;fillColor=none;align=center;verticalAlign=middle;whiteSpace=wrap;rounded=0;fontSize=20;" vertex="1" parent="1">
          <mxGeometry x="731" y="219" width="160" height="39" as="geometry" />
        </mxCell>
        <mxCell id="UlxvyviYZGNXZBbqDF18-14" value="" style="shape=table;startSize=0;container=1;collapsible=0;childLayout=tableLayout;fontSize=16;" vertex="1" parent="1">
          <mxGeometry x="323.5" y="143.88" width="145" height="68" as="geometry" />
        </mxCell>
        <mxCell id="UlxvyviYZGNXZBbqDF18-15" value="" style="shape=tableRow;horizontal=0;startSize=0;swimlaneHead=0;swimlaneBody=0;strokeColor=inherit;top=0;left=0;bottom=0;right=0;collapsible=0;dropTarget=0;fillColor=none;points=[[0,0.5],[1,0.5]];portConstraint=eastwest;fontSize=16;" vertex="1" parent="UlxvyviYZGNXZBbqDF18-14">
          <mxGeometry width="145" height="38" as="geometry" />
        </mxCell>
        <mxCell id="UlxvyviYZGNXZBbqDF18-16" value="123" style="shape=partialRectangle;html=1;whiteSpace=wrap;connectable=0;strokeColor=inherit;overflow=hidden;fillColor=none;top=0;left=0;bottom=0;right=0;pointerEvents=1;fontSize=16;" vertex="1" parent="UlxvyviYZGNXZBbqDF18-15">
          <mxGeometry width="72" height="38" as="geometry">
            <mxRectangle width="72" height="38" as="alternateBounds" />
          </mxGeometry>
        </mxCell>
        <mxCell id="UlxvyviYZGNXZBbqDF18-17" value="1" style="shape=partialRectangle;html=1;whiteSpace=wrap;connectable=0;strokeColor=inherit;overflow=hidden;fillColor=none;top=0;left=0;bottom=0;right=0;pointerEvents=1;fontSize=16;" vertex="1" parent="UlxvyviYZGNXZBbqDF18-15">
          <mxGeometry x="72" width="73" height="38" as="geometry">
            <mxRectangle width="73" height="38" as="alternateBounds" />
          </mxGeometry>
        </mxCell>
        <mxCell id="UlxvyviYZGNXZBbqDF18-19" value="" style="shape=tableRow;horizontal=0;startSize=0;swimlaneHead=0;swimlaneBody=0;strokeColor=inherit;top=0;left=0;bottom=0;right=0;collapsible=0;dropTarget=0;fillColor=none;points=[[0,0.5],[1,0.5]];portConstraint=eastwest;fontSize=16;" vertex="1" parent="UlxvyviYZGNXZBbqDF18-14">
          <mxGeometry y="38" width="145" height="30" as="geometry" />
        </mxCell>
        <mxCell id="UlxvyviYZGNXZBbqDF18-20" value="456" style="shape=partialRectangle;html=1;whiteSpace=wrap;connectable=0;strokeColor=inherit;overflow=hidden;fillColor=none;top=0;left=0;bottom=0;right=0;pointerEvents=1;fontSize=16;" vertex="1" parent="UlxvyviYZGNXZBbqDF18-19">
          <mxGeometry width="72" height="30" as="geometry">
            <mxRectangle width="72" height="30" as="alternateBounds" />
          </mxGeometry>
        </mxCell>
        <mxCell id="UlxvyviYZGNXZBbqDF18-21" value="2" style="shape=partialRectangle;html=1;whiteSpace=wrap;connectable=0;strokeColor=inherit;overflow=hidden;fillColor=none;top=0;left=0;bottom=0;right=0;pointerEvents=1;fontSize=16;" vertex="1" parent="UlxvyviYZGNXZBbqDF18-19">
          <mxGeometry x="72" width="73" height="30" as="geometry">
            <mxRectangle width="73" height="30" as="alternateBounds" />
          </mxGeometry>
        </mxCell>
        <mxCell id="UlxvyviYZGNXZBbqDF18-66" value="" style="shape=table;startSize=0;container=1;collapsible=0;childLayout=tableLayout;fontSize=16;" vertex="1" parent="1">
          <mxGeometry x="744" y="148.89" width="145" height="62.99000000000001" as="geometry" />
        </mxCell>
        <mxCell id="UlxvyviYZGNXZBbqDF18-67" value="" style="shape=tableRow;horizontal=0;startSize=0;swimlaneHead=0;swimlaneBody=0;strokeColor=inherit;top=0;left=0;bottom=0;right=0;collapsible=0;dropTarget=0;fillColor=none;points=[[0,0.5],[1,0.5]];portConstraint=eastwest;fontSize=16;" vertex="1" parent="UlxvyviYZGNXZBbqDF18-66">
          <mxGeometry width="145" height="33" as="geometry" />
        </mxCell>
        <mxCell id="UlxvyviYZGNXZBbqDF18-68" value="123" style="shape=partialRectangle;html=1;whiteSpace=wrap;connectable=0;strokeColor=inherit;overflow=hidden;fillColor=none;top=0;left=0;bottom=0;right=0;pointerEvents=1;fontSize=16;" vertex="1" parent="UlxvyviYZGNXZBbqDF18-67">
          <mxGeometry width="74" height="33" as="geometry">
            <mxRectangle width="74" height="33" as="alternateBounds" />
          </mxGeometry>
        </mxCell>
        <mxCell id="UlxvyviYZGNXZBbqDF18-69" value="3" style="shape=partialRectangle;html=1;whiteSpace=wrap;connectable=0;strokeColor=inherit;overflow=hidden;fillColor=none;top=0;left=0;bottom=0;right=0;pointerEvents=1;fontSize=16;" vertex="1" parent="UlxvyviYZGNXZBbqDF18-67">
          <mxGeometry x="74" width="71" height="33" as="geometry">
            <mxRectangle width="71" height="33" as="alternateBounds" />
          </mxGeometry>
        </mxCell>
        <mxCell id="UlxvyviYZGNXZBbqDF18-70" value="" style="shape=tableRow;horizontal=0;startSize=0;swimlaneHead=0;swimlaneBody=0;strokeColor=inherit;top=0;left=0;bottom=0;right=0;collapsible=0;dropTarget=0;fillColor=none;points=[[0,0.5],[1,0.5]];portConstraint=eastwest;fontSize=16;" vertex="1" parent="UlxvyviYZGNXZBbqDF18-66">
          <mxGeometry y="33" width="145" height="30" as="geometry" />
        </mxCell>
        <mxCell id="UlxvyviYZGNXZBbqDF18-71" value="456" style="shape=partialRectangle;html=1;whiteSpace=wrap;connectable=0;strokeColor=inherit;overflow=hidden;fillColor=none;top=0;left=0;bottom=0;right=0;pointerEvents=1;fontSize=16;" vertex="1" parent="UlxvyviYZGNXZBbqDF18-70">
          <mxGeometry width="74" height="30" as="geometry">
            <mxRectangle width="74" height="30" as="alternateBounds" />
          </mxGeometry>
        </mxCell>
        <mxCell id="UlxvyviYZGNXZBbqDF18-72" value="4" style="shape=partialRectangle;html=1;whiteSpace=wrap;connectable=0;strokeColor=inherit;overflow=hidden;fillColor=none;top=0;left=0;bottom=0;right=0;pointerEvents=1;fontSize=16;" vertex="1" parent="UlxvyviYZGNXZBbqDF18-70">
          <mxGeometry x="74" width="71" height="30" as="geometry">
            <mxRectangle width="71" height="30" as="alternateBounds" />
          </mxGeometry>
        </mxCell>
      </root>
    </mxGraphModel>
  </diagram>
</mxfile>
